<svg width="27" height="24" viewBox="0 0 27 24" fill="none" xmlns="http://www.w3.org/2000/svg">
<path d="M0.9375 4.48438C0.410156 4.48438 0 4.07422 0 3.54688V1.20312C0 0.734375 0.410156 0.265625 0.9375 0.265625H25.3125C25.7812 0.265625 26.25 0.734375 26.25 1.20312V3.54688C26.25 4.07422 25.7812 4.48438 25.3125 4.48438H0.9375ZM0.9375 13.8594C0.410156 13.8594 0 13.4492 0 12.9219V10.5781C0 10.1094 0.410156 9.64062 0.9375 9.64062H25.3125C25.7812 9.64062 26.25 10.1094 26.25 10.5781V12.9219C26.25 13.4492 25.7812 13.8594 25.3125 13.8594H0.9375ZM0.9375 23.2344C0.410156 23.2344 0 22.8242 0 22.2969V19.9531C0 19.4844 0.410156 19.0156 0.9375 19.0156H25.3125C25.7812 19.0156 26.25 19.4844 26.25 19.9531V22.2969C26.25 22.8242 25.7812 23.2344 25.3125 23.2344H0.9375Z" fill="#E4EFFF"/>
</svg>
